<svg xmlns="http://www.w3.org/2000/svg"><symbol id="search" viewBox="0 0 22 21"><path d="M21.465 19.334l-4.77-4.563a8.455 8.455 0 002.08-5.554c0-2.337-.95-4.53-2.678-6.183C14.372 1.38 12.076.473 9.637.473c-2.44 0-4.736.907-6.465 2.56C1.443 4.684.494 6.88.494 9.218c0 2.334.949 4.53 2.678 6.184 1.724 1.65 4.02 2.561 6.464 2.561 2.145 0 4.177-.7 5.806-1.99l4.77 4.56a.913.913 0 001.253 0 .82.82 0 000-1.198zM4.424 14.199c-1.395-1.33-2.162-3.1-2.162-4.982 0-1.881.767-3.655 2.158-4.985 1.39-1.33 3.24-2.064 5.212-2.064 1.967 0 3.822.733 5.212 2.064 1.391 1.33 2.158 3.1 2.158 4.985 0 1.882-.767 3.656-2.158 4.986-1.39 1.33-3.245 2.064-5.212 2.064-1.967 0-3.817-.733-5.208-2.068z"/></symbol><symbol id="user" viewBox="0 0 26 26"><path d="M22.393 4a12.98 12.98 0 00-9.397-4C5.828-.009.01 5.795 0 12.964a12.98 12.98 0 004 9.389c.008.007.01.018.018.025.075.072.157.133.233.203.209.186.418.378.638.557.118.093.24.186.36.271.209.155.417.31.634.453.148.093.3.186.451.279.2.12.4.242.607.352.176.093.355.173.533.257.195.093.387.186.587.27.2.083.4.148.602.22.202.073.377.14.57.2.22.065.445.116.667.17.186.046.366.098.557.135.257.052.516.084.776.12.161.022.318.053.48.069.426.042.854.065 1.287.065.432 0 .861-.023 1.287-.065.162-.016.319-.047.48-.07.26-.035.52-.067.775-.119.186-.037.372-.092.557-.134.223-.055.448-.106.667-.172.194-.06.381-.132.57-.198.19-.067.405-.14.603-.221.198-.082.392-.178.587-.27.178-.084.357-.164.533-.257.207-.11.406-.232.607-.352.151-.093.303-.178.45-.279.218-.143.426-.298.634-.453.12-.093.243-.176.361-.271.22-.176.429-.364.638-.557.076-.07.158-.13.233-.203.007-.007.01-.018.017-.025 5.177-4.96 5.353-13.176.394-18.353zm-2.087 17.38a10.662 10.662 0 01-.834.662 10.359 10.359 0 01-.898.582c-.163.093-.33.185-.497.278a12.889 12.889 0 01-.937.43 9.441 9.441 0 01-.51.186c-.157.053-.314.11-.473.156-.186.056-.38.102-.572.148-.15.035-.299.075-.45.105-.22.043-.446.072-.671.103-.128.017-.255.04-.384.053-.357.034-.718.055-1.083.055s-.726-.02-1.082-.055c-.13-.013-.256-.036-.384-.053-.226-.03-.45-.06-.67-.103-.153-.03-.302-.07-.452-.105a12.816 12.816 0 01-.572-.148c-.158-.047-.315-.102-.472-.156a12.77 12.77 0 01-.51-.186 9.567 9.567 0 01-.485-.212 8.456 8.456 0 01-.95-.497 11.592 11.592 0 01-.898-.581 10.92 10.92 0 01-.834-.661c-.04-.03-.078-.07-.118-.105a7.448 7.448 0 015.062-6.958 5.504 5.504 0 004.729 0 7.448 7.448 0 015.061 6.958l-.116.105zM9.76 7.444a3.713 3.713 0 115.057 5.056c-.005 0-.01 0-.016.006a3.94 3.94 0 01-.776.328c-.048.014-.093.033-.144.045-.093.024-.19.04-.286.057a3.76 3.76 0 01-.545.055h-.106a3.76 3.76 0 01-.545-.055c-.092-.016-.19-.033-.285-.057-.05-.012-.093-.03-.144-.045a3.93 3.93 0 01-.776-.328l-.017-.006A3.713 3.713 0 019.76 7.444zm12.31 11.992a9.329 9.329 0 00-4.97-6.398 5.57 5.57 0 10-8.206 0 9.33 9.33 0 00-4.97 6.398C.363 14.421 1.543 7.471 6.557 3.912 11.57.352 18.52 1.53 22.08 6.545a11.134 11.134 0 012.056 6.45c0 2.31-.723 4.562-2.067 6.44z"/></symbol><symbol id="favorite" viewBox="0 0 26 26"><path d="M19.706 25.617l-6.709-3.711-6.708 3.71a1.069 1.069 0 01-1.124-.056 1.052 1.052 0 01-.438-1.036l1.296-7.937-5.475-5.61a1.054 1.054 0 01.604-1.78l7.515-1.151L12.04.858c.171-.37.546-.609.957-.609.412 0 .786.24.963.61l3.373 7.187 7.515 1.15c.396.063.719.333.849.708.125.375.03.791-.245 1.072l-5.475 5.61 1.296 7.938c.067.4-.104.802-.438 1.036a1.072 1.072 0 01-1.129.057zM3.504 10.977l4.409 4.517c.234.24.338.578.286.905l-1.03 6.308 5.308-2.935a1.067 1.067 0 011.03 0l5.31 2.936-1.031-6.309a1.055 1.055 0 01.286-.905l4.408-4.518-6.042-.921a1.058 1.058 0 01-.802-.599l-2.639-5.652-2.649 5.647a1.07 1.07 0 01-.801.599l-6.043.926z"/></symbol><symbol id="cart" viewBox="0 0 26 26"><path d="M25.77 8.72a.954.954 0 00-.74-.359h-2.693L17.048.846a.944.944 0 00-1.356-.217 1.041 1.041 0 00-.208 1.415L19.93 8.36H5.811l4.446-6.317A1.041 1.041 0 0010.05.629a.945.945 0 00-1.356.217L3.404 8.36H.97a.954.954 0 00-.74.358 1.043 1.043 0 00-.217.82L2.44 24.722c.078.488.482.846.956.846h19.21c.474 0 .878-.357.956-.846L25.987 9.54a1.043 1.043 0 00-.217-.82zm-3.987 14.823H4.217L2.115 10.385h21.77l-2.102 13.158z"/><path d="M13 12.747c-.535 0-.97.453-.97 1.012v6.646c0 .56.435 1.013.97 1.013.536 0 .97-.453.97-1.012v-6.647c0-.559-.434-1.012-.97-1.012zm5.012 0c-.536 0-.97.453-.97 1.012v6.646c0 .56.434 1.013.97 1.013s.97-.453.97-1.012v-6.647c0-.559-.434-1.012-.97-1.012zm-10.024 0c-.536 0-.97.453-.97 1.012v6.646c0 .56.434 1.013.97 1.013s.97-.453.97-1.012v-6.647c0-.559-.434-1.012-.97-1.012z"/></symbol><symbol id="home" viewBox="0 0 17 20"><path d="M8.143 1l.675-.737a1 1 0 00-1.385.033l.71.704zM1 8.2l-.71-.704A1 1 0 000 8.2h1zM1 19H0a1 1 0 001 1v-1zm5 0v1a1 1 0 001-1H6zm0-5.76v-1a1 1 0 00-1 1h1zm5 0h1a1 1 0 00-1-1v1zM11 19h-1a1 1 0 001 1v-1zm5 0v1a1 1 0 001-1h-1zm0-10.8h1a1 1 0 00-.324-.737L16 8.2zM7.433.296L.29 7.496l1.42 1.408 7.143-7.2L7.433.296zM0 8.2V19h2V8.2H0zM1 20h5v-2H1v2zm6-1v-5.76H5V19h2zm-1-4.76h5v-2H6v2zm4-1V19h2v-5.76h-2zM11 20h5v-2h-5v2zm6-1V8.2h-2V19h2zm-.324-11.537L8.818.263l-1.35 1.474 7.856 7.2 1.352-1.474z"/></symbol><symbol id="arrow-right" viewBox="0 0 9 14"><path d="M1.707 13.707a1 1 0 01-1.414-1.414l1.414 1.414zm-1.414-12A1 1 0 011.707.293L.293 1.707zM7 7l.707-.707.707.707-.707.707L7 7zm.707.707l-6 6-1.414-1.414 6-6 1.414 1.414zm-6-7.414l6 6-1.414 1.414-6-6L1.707.293z"/></symbol><symbol id="grid-blocks" viewBox="0 0 16 15"><path d="M0 15h4.083v-4H0v4zM0 4h4.083V0H0v4zm0 5.5h4.083v-4H0v4zM5.958 15h4.084v-4H5.958v4zm0-11h4.084V0H5.958v4zm0 5.5h4.084v-4H5.958v4zm5.959 5.5H16v-4h-4.083v4zm0-11H16V0h-4.083v4zm0 5.5H16v-4h-4.083v4z"/></symbol><symbol id="grid-line" viewBox="0 0 18 18"><path d="M1 3a1 1 0 000 2V3zm16 2a1 1 0 100-2v2zM1 16a1 1 0 100 2v-2zm16 2a1 1 0 100-2v2zM1 7.333a1 1 0 000 2v-2zm16 2a1 1 0 100-2v2zM1 11.667a1 1 0 100 2v-2zm16 2a1 1 0 100-2v2zM1 5h16V3H1v2zm0 13h16v-2H1v2zm0-8.667h16v-2H1v2zm0 4.334h16v-2H1v2z"/></symbol><symbol id="star" viewBox="0 0 34 34"><g filter="url(#filter0_d_1101_271)"><path d="M23.582 25.492l-6.709-3.711-6.708 3.71a1.069 1.069 0 01-1.125-.057 1.052 1.052 0 01-.437-1.035L9.9 16.46l-5.475-5.61a1.054 1.054 0 01.604-1.78l7.515-1.15L15.916.733c.171-.37.546-.609.957-.609.412 0 .786.24.963.609l3.373 7.188 7.515 1.15c.396.062.718.333.849.708.125.374.03.79-.245 1.072l-5.475 5.61 1.296 7.938c.067.4-.104.801-.438 1.035a1.072 1.072 0 01-1.129.058zM7.38 10.85l4.409 4.518c.234.239.338.577.286.905l-1.03 6.308 5.308-2.935a1.066 1.066 0 011.03 0l5.31 2.935-1.031-6.308a1.055 1.055 0 01.286-.905l4.408-4.518-6.042-.921a1.058 1.058 0 01-.802-.599l-2.639-5.65-2.649 5.647a1.07 1.07 0 01-.801.598l-6.043.927z" fill="#BCBCBC"/></g><defs><filter id="filter0_d_1101_271" x=".125" y=".124" width="33.502" height="33.502" filterUnits="userSpaceOnUse" color-interpolation-filters="sRGB"><feFlood flood-opacity="0" result="BackgroundImageFix"/><feColorMatrix in="SourceAlpha" values="0 0 0 0 0 0 0 0 0 0 0 0 0 0 0 0 0 0 127 0" result="hardAlpha"/><feOffset dy="4"/><feGaussianBlur stdDeviation="2"/><feComposite in2="hardAlpha" operator="out"/><feColorMatrix values="0 0 0 0 0 0 0 0 0 0 0 0 0 0 0 0 0 0 0.25 0"/><feBlend in2="BackgroundImageFix" result="effect1_dropShadow_1101_271"/><feBlend in="SourceGraphic" in2="effect1_dropShadow_1101_271" result="shape"/></filter></defs></symbol><symbol id="message" viewBox="0 0 25 25"><g clip-path="url(#clip0_1101_277)"><path d="M12.5 3C5.592 3 0 6.59 0 13.5c0 2.192.572 3.333 1.658 5.222l-1.61 5.002a.976.976 0 001.228 1.228l5.001-2.61A12.47 12.47 0 0012.5 24C19.408 24 25 20.409 25 13.5S19.41 3 12.5 3zm0 19.046c-1.98 0-3.91-.552-5.583-1.598a.977.977 0 00-.817-.101L2.49 22.51l1.163-3.61a.977.977 0 00-.102-.818C2.506 16.41 1.953 15.48 1.953 13.5c0-5.815 4.731-8.546 10.547-8.546 5.816 0 10.547 2.731 10.547 8.546 0 5.816-4.732 8.547-10.547 8.547zm1.22-9.546a1.22 1.22 0 11-2.44 0 1.22 1.22 0 012.44 0zm4.883 0a1.22 1.22 0 11-2.44 0 1.22 1.22 0 012.44 0zm-9.765 0a1.22 1.22 0 11-2.442 0 1.22 1.22 0 012.442 0z" fill="#BCBCBC"/></g><defs><clipPath id="clip0_1101_277"><path fill="#fff" d="M0 0h25v25H0z"/></clipPath></defs></symbol><symbol id="arrow-circle" viewBox="0 0 49 44"><path d="M42 22l-.9 1.2 1.04.78.92-.92L42 22zm-5.355 15.74a1.5 1.5 0 10-2.044-2.195l2.044 2.196zm11.416-19.68a1.5 1.5 0 00-2.122-2.12l2.122 2.12zm-10.875-1.546a1.5 1.5 0 10-1.8 2.4l1.8-2.4zM22 40.5C11.783 40.5 3.5 32.217 3.5 22h-3c0 11.874 9.626 21.5 21.5 21.5v-3zM3.5 22C3.5 11.783 11.783 3.5 22 3.5v-3C10.126.5.5 10.126.5 22h3zM22 3.5c10.217 0 18.5 8.283 18.5 18.5h3C43.5 10.126 33.874.5 22 .5v3zm12.601 32.045A18.43 18.43 0 0122 40.5v3a21.43 21.43 0 0014.645-5.76l-2.044-2.195zm8.46-12.484l5-5-2.122-2.122-5 5 2.122 2.122zM42.9 20.8l-5.714-4.286-1.8 2.4L41.1 23.2l1.8-2.4z"/></symbol><symbol id="dable-arrow-left" viewBox="0 0 23 22"><path d="M10.293 17.707a1 1 0 001.414-1.414l-1.414 1.414zm1.414-12a1 1 0 00-1.414-1.414l1.414 1.414zM5 11l-.707-.707-.707.707.707.707L5 11zm-.707.707l6 6 1.414-1.414-6-6-1.414 1.414zm6-7.414l-6 6 1.414 1.414 6-6-1.414-1.414zm7 13.414a1 1 0 001.414-1.414l-1.414 1.414zm1.414-12a1 1 0 00-1.414-1.414l1.414 1.414zM12 11l-.707-.707-.707.707.707.707L12 11zm-.707.707l6 6 1.414-1.414-6-6-1.414 1.414zm6-7.414l-6 6 1.414 1.414 6-6-1.414-1.414z" fill="#111"/></symbol><symbol id="dable-arrow-right" viewBox="0 0 23 22"><path d="M12.707 17.707a1 1 0 01-1.414-1.414l1.414 1.414zm-1.414-12a1 1 0 011.414-1.414l-1.414 1.414zM18 11l.707-.707.707.707-.707.707L18 11zm.707.707l-6 6-1.414-1.414 6-6 1.414 1.414zm-6-7.414l6 6-1.414 1.414-6-6 1.414-1.414zm-7 13.414a1 1 0 01-1.414-1.414l1.414 1.414zm-1.414-12a1 1 0 011.414-1.414L4.293 5.707zM11 11l.707-.707.707.707-.707.707L11 11zm.707.707l-6 6-1.414-1.414 6-6 1.414 1.414zm-6-7.414l6 6-1.414 1.414-6-6 1.414-1.414z" fill="#111"/></symbol><symbol id="arrow-left" viewBox="0 0 16 22"><path d="M11.707 5.707a1 1 0 00-1.414-1.414l1.414 1.414zM5 11l-.707-.707-.707.707.707.707L5 11zm5.293 6.707a1 1 0 001.414-1.414l-1.414 1.414zm0-13.414l-6 6 1.414 1.414 6-6-1.414-1.414zm-6 7.414l6 6 1.414-1.414-6-6-1.414 1.414z" fill="#111"/></symbol><symbol id="facebook" viewBox="0 0 11 21"><path d="M7.917 3.44h2.5c.23 0 .416-.188.416-.421V.492a.419.419 0 00-.416-.42h-2.5c-2.53.002-4.58 2.074-4.584 4.631v2.948H.417A.419.419 0 000 8.072V10.6c0 .233.187.421.417.421h2.916v8.843a.42.42 0 00.417.422h2.5a.42.42 0 00.417-.422V11.02h2.916c.18 0 .339-.116.395-.288l.834-2.527a.422.422 0 00-.395-.554h-3.75V4.703c0-.697.56-1.263 1.25-1.263z" fill="#B9B9B9"/></symbol><symbol id="instagram" viewBox="0 0 15 16"><path fill-rule="evenodd" clip-rule="evenodd" d="M0 3.915C0 1.82 1.679.125 3.75.125h7.5C13.321.125 15 1.82 15 3.915v7.58c0 2.093-1.679 3.79-3.75 3.79h-7.5c-2.071 0-3.75-1.697-3.75-3.79v-7.58zm7.5 6.127c1.277 0 2.313-1.047 2.313-2.337 0-1.291-1.036-2.338-2.313-2.338-1.277 0-2.313 1.047-2.313 2.338 0 1.29 1.036 2.337 2.313 2.337zm0 1.579c2.14 0 3.875-1.753 3.875-3.916 0-2.163-1.735-3.917-3.875-3.917-2.14 0-3.875 1.754-3.875 3.917S5.36 11.62 7.5 11.62zm4.063-6.948c.586 0 1.062-.481 1.062-1.074 0-.593-.476-1.074-1.063-1.074-.586 0-1.062.48-1.062 1.074 0 .593.476 1.074 1.063 1.074z" fill="#B9B9B9"/></symbol><symbol id="youtube" viewBox="0 0 18 13"><path d="M16.713 1.325c-.474-.85-.988-1.007-2.034-1.067C13.634.186 11.006.157 8.73.157c-2.28 0-4.91.03-5.954.1C1.731.317 1.216.473.74 1.325.25 2.175 0 3.64 0 6.217v.009c0 2.567.25 4.042.739 4.883.477.851.991 1.006 2.035 1.077 1.045.062 3.674.098 5.955.098 2.277 0 4.905-.036 5.951-.097 1.046-.071 1.56-.226 2.034-1.077.492-.84.74-2.316.74-4.883v-.009c0-2.578-.248-4.043-.741-4.893zM6.545 9.528V2.913L12 6.221 6.545 9.528z" fill="#B9B9B9"/></symbol></svg>