<svg width="32" height="32" fill="none" xmlns="http://www.w3.org/2000/svg"><path d="M31.866 25.504l-5.804-10.076c.6-1.358.938-2.854.938-4.428 0-6.066-4.934-11-11-11S5 4.934 5 11c0 1.574.338 3.07.938 4.426L.134 25.5a.999.999 0 00.074 1.11.996.996 0 001.052.356l5.872-1.58 1.562 5.87A.997.997 0 009.66 32a1 1 0 00.866-.5L16 22.024l5.474 9.476a1 1 0 001.832-.242l1.562-5.87 5.872 1.58a1 1 0 001.126-1.464zm-21.862 2.902l-1.198-4.502a1.007 1.007 0 00-.466-.61 1.02 1.02 0 00-.76-.1l-4.508 1.212 4.02-6.978a11.01 11.01 0 006.738 4.356l-3.826 6.622zM7 11c0-4.962 4.038-9 9-9s9 4.038 9 9-4.038 9-9 9-9-4.038-9-9zm17.42 12.196a.996.996 0 00-1.226.71l-1.198 4.502-3.826-6.622a11.008 11.008 0 006.738-4.356l4.02 6.978-4.508-1.212z" fill="#464646"/><path d="M21.95 8.504a.996.996 0 00-.697-.652l-2.836-.742-1.556-2.62c-.36-.608-1.36-.608-1.718 0l-1.556 2.62-2.838.742a1 1 0 00-.53 1.592l1.902 2.38-.208 3.11c-.022.346.136.68.42.882.284.202.652.24.97.104l2.698-1.146L18.7 15.92a.996.996 0 00.972-.104.998.998 0 00.418-.882l-.208-3.11 1.9-2.38a1 1 0 00.168-.94zm-3.873 2.376a.994.994 0 00-.216.69l.126 1.874-1.594-.678a.996.996 0 00-.784 0l-1.592.678.124-1.874a.994.994 0 00-.216-.69l-1.182-1.482 1.746-.458c.254-.066.472-.232.606-.456l.906-1.526.906 1.526c.134.224.352.39.606.456l1.746.458-1.182 1.482z" fill="#464646"/></svg>