<svg width="38" height="33" fill="none" xmlns="http://www.w3.org/2000/svg"><path d="M33.319 18.85l2.475 1.57c.468.298.466.78-.004 1.075l-16.124 10.13c-.468.294-1.224.292-1.688-.005L2.126 21.495c-.464-.297-.462-.775.003-1.07l2.482-1.574" stroke="#464646" stroke-width="2"/><path d="M4.818 14.016l-2.769 1.915c-.428.296-.417.752.024 1.04L17.97 27.335c.466.304 1.235.306 1.705.004l16.133-10.345c.462-.296.46-.773-.005-1.068l-2.484-1.576" stroke="#464646" stroke-width="2"/><path d="M2.631 13.461c-.456-.286-.473-.75-.038-1.05l15.39-10.623c.456-.315 1.234-.328 1.716-.028l16.247 10.114c.477.297.477.784 0 1.081L19.65 23.106c-.466.29-1.213.29-1.677-.002L2.63 13.46z" stroke="#464646" stroke-width="2"/></svg>