<svg width="32" height="32" fill="none" xmlns="http://www.w3.org/2000/svg"><path d="M19.088 7.853l2.192 1.622c.247.183.122.587-.19.588l-.688.005H20.4a.323.323 0 01-.322-.32.937.937 0 10-1.875.011 2.2 2.2 0 001.601 2.101v.045a.938.938 0 001.875 0v-.047c.365-.101.7-.296.973-.573.413-.418.638-.971.634-1.56v-.006a2.208 2.208 0 00-.89-1.751l-2.193-1.622a.323.323 0 01.192-.582h.689c.178 0 .323.145.323.323a.938.938 0 001.875 0 2.2 2.2 0 00-1.603-2.115v-.045a.937.937 0 10-1.875 0v.044a2.2 2.2 0 00-1.607 2.116c0 .693.333 1.353.89 1.766z" fill="#464646"/><path d="M20.742 15.832c4.366 0 7.918-3.55 7.918-7.916C28.66 3.551 25.108 0 20.742 0s-7.918 3.551-7.918 7.916 3.552 7.916 7.918 7.916zm0-13.957a6.049 6.049 0 016.043 6.041 6.049 6.049 0 01-6.043 6.041 6.049 6.049 0 01-6.043-6.04 6.049 6.049 0 016.043-6.042zM31.355 17.95a3.058 3.058 0 00-4.162-.638L23.626 19.7a2.94 2.94 0 00-2.59-1.552h-2.544a6.995 6.995 0 00-4.767-1.889 6.946 6.946 0 00-3.734 1.085 6.98 6.98 0 00-2.393 2.565l-.477.292-.124-.362a.937.937 0 00-1.19-.584L.635 21.02a.938.938 0 00-.584 1.19l3.13 9.155c.167.49.7.75 1.19.583l5.172-1.767c.462-.158.764-.662.573-1.22l8.208-.255a10.658 10.658 0 006.2-1.985l6.189-4.403a3.057 3.057 0 00.642-4.37zM4.651 29.871l-2.523-7.38 3.398-1.16L8.05 28.71l-3.398 1.161zm24.975-9.08l-6.19 4.402a8.794 8.794 0 01-5.156 1.639l-8.798.272-1.74-5.088L8.8 21.37a.947.947 0 00.352-.387 5.061 5.061 0 014.573-2.851c1.415 0 2.729.566 3.7 1.595.179.19.436.293.682.293h2.93a1.062 1.062 0 110 2.123h-5.29a.938.938 0 000 1.876h5.29c.785 0 1.523-.306 2.076-.86.388-.388.653-.864.779-1.383l4.35-2.911.017-.01a1.185 1.185 0 011.367 1.935z" fill="#464646"/></svg>