<svg width="31" height="18" viewBox="0 0 31 18" fill="none" xmlns="http://www.w3.org/2000/svg">
<path d="M1 0C0.447715 0 0 0.447715 0 1C0 1.55228 0.447715 2 1 2V0ZM30 2C30.5523 2 31 1.55228 31 1C31 0.447715 30.5523 0 30 0V2ZM1 8C0.447715 8 0 8.44772 0 9C0 9.55229 0.447715 10 1 10V8ZM30 10C30.5523 10 31 9.55229 31 9C31 8.44772 30.5523 8 30 8V10ZM1 16C0.447715 16 0 16.4477 0 17C0 17.5523 0.447715 18 1 18V16ZM30 18C30.5523 18 31 17.5523 31 17C31 16.4477 30.5523 16 30 16V18ZM1 2H30V0H1V2ZM1 10H30V8H1V10ZM1 18H30V16H1V18Z" fill="white"/>
</svg>
